<?xml version="1.0" encoding="UTF-8"?>
<svg width="20px" height="20px" viewBox="0 0 20 20" version="1.1" xmlns="http://www.w3.org/2000/svg" xmlns:xlink="http://www.w3.org/1999/xlink">
    <g id="页面-1" stroke="none" stroke-width="1" fill="none" fill-rule="evenodd">
        <g id="图片切边增强" transform="translate(-1328.000000, -854.000000)" fill="currentColor">
            <g id="Button-按钮/Normal/Primary/Icon/S/1-Normal" transform="translate(1316.000000, 848.000000)">
                <g id="Button-按钮/Icon+Text/IconLeft/1-Normal" transform="translate(12.000000, 6.000000)">
                    <g id="icon-file-download" transform="translate(2.708333, 2.708333)">
                        <path d="M13.9583333,10.8333333 C14.2651582,10.8333333 14.5203438,11.0544273 14.5732637,11.3459888 L14.5833333,11.4583333 L14.5833333,13.125 C14.5833333,14.3273699 13.6573556,15.3134662 12.479619,15.4090699 L12.2916667,15.4166667 L2.29166667,15.4166667 C1.08929674,15.4166667 0.103200508,14.4906889 0.0075968089,13.3129523 L0,13.125 L0,11.4583333 C0,11.1131554 0.279822031,10.8333333 0.625,10.8333333 C0.931824861,10.8333333 1.18701046,11.0544273 1.23993041,11.3459888 L1.25,11.4583333 L1.25,13.125 C1.25,13.656043 1.6473804,14.0942729 2.16100221,14.1585506 L2.29166667,14.1666667 L12.2916667,14.1666667 C12.8227097,14.1666667 13.2609396,13.7692863 13.3252173,13.2556645 L13.3333333,13.125 L13.3333333,11.4583333 C13.3333333,11.1131554 13.6131554,10.8333333 13.9583333,10.8333333 Z M7.29166667,0 C7.59849153,0 7.85367713,0.221093951 7.90659708,0.51265546 L7.91666667,0.625 L7.916,9.115 L11.0163916,6.0163916 C11.2333495,5.79943366 11.57013,5.77532722 11.8137152,5.94407228 L11.9002751,6.0163916 C12.117233,6.23334953 12.1413394,6.57013004 11.9725944,6.81371521 L11.9002751,6.90027507 L7.7336084,11.0669417 L7.72150881,11.0787207 C7.70900805,11.0905676 7.69601805,11.1019033 7.68257229,11.1126945 L7.7336084,11.0669417 C7.7043363,11.0962138 7.672883,11.1219754 7.63977168,11.1442263 C7.6305583,11.1503663 7.62058806,11.1566794 7.61043229,11.1627129 C7.59402937,11.172501 7.57758306,11.1812674 7.56085534,11.1892476 C7.54650115,11.1960667 7.53231366,11.2021998 7.51786577,11.2078113 C7.50572629,11.2125092 7.49323215,11.2169006 7.48063677,11.2208834 C7.42086126,11.2398366 7.35745086,11.25 7.29166667,11.25 C7.24250292,11.25 7.194665,11.2443234 7.14877259,11.23359 C7.13204353,11.2296228 7.11542706,11.2250094 7.09898712,11.2196976 C7.09248137,11.2176337 7.08568151,11.2153049 7.07893566,11.2128633 C7.05554715,11.2043894 7.03265201,11.1945439 7.01029276,11.1832699 C6.99899775,11.1775329 6.98768914,11.1713786 6.97659832,11.1648923 C6.96297951,11.1569969 6.9494951,11.1484126 6.93628479,11.1392611 C6.90178542,11.1149184 6.87343484,11.0909134 6.84740381,11.0646084 L2.68305826,6.90027507 C2.43898058,6.65619739 2.43898058,6.26046928 2.68305826,6.0163916 C2.9000162,5.79943366 3.2367967,5.77532722 3.48038188,5.94407228 L3.56694174,6.0163916 L6.666,9.115 L6.66666667,0.625 C6.66666667,0.279822031 6.9464887,0 7.29166667,0 Z" id="蒙版"></path>
                    </g>
                </g>
            </g>
        </g>
    </g>
</svg>