<?xml version="1.0" encoding="UTF-8"?>
<svg width="16px" height="16px" viewBox="0 0 16 16" version="1.1" xmlns="http://www.w3.org/2000/svg" xmlns:xlink="http://www.w3.org/1999/xlink">
    >
    <g id="1-Arrow/cloud-upload" stroke="none" stroke-width="1" fill="none" fill-rule="evenodd">
        <g id="icon-cloud-upload" transform="translate(1.030303, 2.799944)" fill="#030A1A">
            <path d="M6.96969697,4.70005579 L6.98023432,4.70016614 C7.00142995,4.70061015 7.02260273,4.70239399 7.04361474,4.70551766 L6.96969697,4.70005579 C7.00579401,4.70005579 7.04099764,4.70388094 7.07492462,4.71114802 C7.08992737,4.7143998 7.10504792,4.71837639 7.11999156,4.72307126 C7.13486132,4.72771639 7.14950437,4.73310115 7.16380811,4.73913229 C7.17554724,4.74407509 7.18692331,4.74937969 7.19812749,4.75513538 C7.21127063,4.76192228 7.22428558,4.76937418 7.23691718,4.77737669 C7.24255041,4.7808893 7.24830827,4.78470226 7.25400247,4.78864695 L7.27645511,4.80518554 C7.28719391,4.81354009 7.29758292,4.82232308 7.30759646,4.83150885 L7.32325036,4.8465024 L9.32325036,6.8465024 C9.51851251,7.04176454 9.51851251,7.35834703 9.32325036,7.55360918 C9.14968401,7.72717553 8.88025961,7.74646068 8.68539147,7.61146463 L8.61614358,7.55360918 L7.469,6.407 L7.46969697,11.2000558 C7.46969697,11.4761982 7.24583934,11.7000558 6.96969697,11.7000558 C6.72423708,11.7000558 6.5200886,11.5231806 6.47775264,11.2899314 L6.46969697,11.2000558 L6.469,6.407 L5.32325036,7.55360918 C5.14968401,7.72717553 4.88025961,7.74646068 4.68539147,7.61146463 L4.61614358,7.55360918 C4.44257723,7.38004283 4.42329208,7.11061843 4.55828813,6.91575028 L4.61614358,6.8465024 L6.61614358,4.8465024 L6.62841054,4.83464454 C6.64087829,4.82299499 6.65394273,4.81197604 6.66755305,4.80163852 L6.61614358,4.8465024 C6.64297785,4.81966813 6.6721034,4.7965216 6.70289045,4.77706283 C6.7140145,4.77007512 6.7256503,4.76334913 6.73756973,4.75709013 C6.75149126,4.74976878 6.76530071,4.74334086 6.779319,4.73757701 C6.79112611,4.73269007 6.80384582,4.72802173 6.81679554,4.72386698 C6.83289407,4.71876449 6.84860642,4.71459247 6.86445179,4.71119672 C6.87488295,4.70891333 6.88560293,4.70697541 6.89643585,4.70538487 C6.91670621,4.70242231 6.93741923,4.70066395 6.9581562,4.70018816 C6.96220645,4.70009707 6.96594689,4.70005579 6.96969697,4.70005579 Z M10.0887884,0.950603323 C11.004953,1.67808239 11.5253859,2.72106228 11.543442,3.80781726 L11.538697,4.03305579 L11.6363636,4.03338912 C13.1432146,4.03338915 14.3753256,5.20969085 14.464526,6.69412369 L14.4696969,6.86672245 C14.4696969,8.37357343 13.2933952,9.60568444 11.8089624,9.69488491 L11.6363636,9.70005579 L10.969697,9.70005579 C10.6935546,9.70005579 10.469697,9.47619816 10.469697,9.20005579 C10.469697,8.9545959 10.6465721,8.75044742 10.8798213,8.70811146 L10.969697,8.70005579 L11.6363636,8.70005579 C12.6488856,8.70005579 13.4696969,7.87924449 13.4696969,6.86672245 C13.4696969,5.90482653 12.7289148,5.11594955 11.7867255,5.03946657 L11.6363636,5.03338912 L10.969697,5.03338912 C10.6493845,5.03338912 10.4116826,4.73641618 10.4818365,4.42388059 C10.7036844,3.43554816 10.3215427,2.41233689 9.4669395,1.73374059 C8.59453858,1.04101205 7.36733687,0.817884465 6.25597421,1.15408615 C5.15709178,1.48651239 4.34822851,2.31162489 4.12422415,3.30956432 C4.07298532,3.53783331 3.87031267,3.70005579 3.63636364,3.70005579 C2.17549059,3.70005579 1,4.82443809 1,6.20005579 C1,7.57567349 2.17549059,8.70005579 3.63636364,8.70005579 C3.91250601,8.70005579 4.13636364,8.92391341 4.13636364,9.20005579 C4.13636364,9.47619816 3.91250601,9.70005579 3.63636364,9.70005579 C1.63290507,9.70005579 0,8.13814659 0,6.20005579 C0,4.44952216 1.33215149,3.00588383 3.06626944,2.74286413 L3.25369697,2.71905579 L3.26285046,2.69076096 C3.65015401,1.58246469 4.5656565,0.691594263 5.75394302,0.266967939 L5.96642033,0.196924431 C7.38864007,-0.233315566 8.95688924,0.0518206472 10.0887884,0.950603323 Z" id="蒙版"></path>
        </g>
    </g>
</svg>