<?xml version="1.0" encoding="UTF-8"?>
<svg width="40px" height="40px" viewBox="0 0 40 40" version="1.1" xmlns="http://www.w3.org/2000/svg" xmlns:xlink="http://www.w3.org/1999/xlink">
    <title>切片</title>
    <defs>
        <linearGradient x1="50%" y1="0%" x2="50%" y2="100%" id="linearGradient-1">
            <stop stop-color="#14CC9E" offset="0%"></stop>
            <stop stop-color="#10D9B0" offset="100%"></stop>
        </linearGradient>
        <linearGradient x1="33.7255478%" y1="4.40540971%" x2="61.3818776%" y2="98.9167838%" id="linearGradient-2">
            <stop stop-color="#FFFFFF" offset="0%"></stop>
            <stop stop-color="#FFFFFF" stop-opacity="0" offset="100%"></stop>
        </linearGradient>
        <linearGradient x1="50%" y1="0%" x2="61.3818776%" y2="98.9167838%" id="linearGradient-3">
            <stop stop-color="#FFFFFF" offset="0%"></stop>
            <stop stop-color="#FFFFFF" stop-opacity="0" offset="100%"></stop>
        </linearGradient>
    </defs>
    <g id="使用界面-格式转换-✅" stroke="none" stroke-width="1" fill="none" fill-rule="evenodd">
        <g id="file-icon" transform="translate(-36.000000, -103.000000)">
            <g id="缩略图备份-4" transform="translate(36.000000, 103.000000)">
                <rect id="矩形" x="0" y="0" width="40" height="40"></rect>
                <g id="编组" transform="translate(10.000000, 10.000000)" fill-rule="nonzero">
                    <path d="M13.937868,0.15 L19.85,6.06213206 L19.8500053,17.2233588 C19.8425662,18.1046133 19.7482671,18.4410221 19.5706414,18.7791761 C19.3914241,19.1191482 19.1278105,19.3861954 18.7938803,19.5666729 C18.4264825,19.7585983 18.0791759,19.8467707 17.2055555,19.85 L17.2055555,19.85 L2.84888888,19.85 C1.90078281,19.85 1.55528721,19.7553261 1.20851146,19.5673497 C0.876641147,19.3898834 0.605274145,19.1153437 0.430469717,18.7813257 C0.241664938,18.4087163 0.154259762,18.0565862 0.15,17.170625 L0.15,17.170625 L0.15,2.88449999 C0.15,1.92312718 0.243760948,1.57294472 0.429446785,1.22178138 C0.608644113,0.880804398 0.872226365,0.61378467 1.20581263,0.43348712 C1.57332289,0.242581514 1.92071295,0.154306711 2.79444445,0.15 L2.79444445,0.15 L13.937868,0.15 Z" id="路径" stroke="url(#linearGradient-2)" stroke-width="0.3" fill="url(#linearGradient-1)"></path>
                    <path d="M14.15,0.362132034 L19.637868,5.85 L15.667,5.85 C15.1297021,5.85 14.9330101,5.79980687 14.7351979,5.69343965 C14.5525943,5.59674106 14.4032589,5.44740565 14.3074726,5.26655252 C14.1956699,5.04853724 14.15,4.84515889 14.15,4.33300001 L14.15,4.33300001 L14.15,0.362132034 Z" id="路径" stroke="url(#linearGradient-3)" stroke-width="0.3" fill="#5ADBBB"></path>
                    <polygon id="X" fill="#FFFFFF" points="4.81710914 16 6.45870206 13.4054622 8.06932153 16 10 16 7.42920354 12.0819328 9.79351032 8.5 8.01769912 8.5 6.52064897 10.894958 5.07522124 8.5 3.19616519 8.5 5.57079646 12.0714286 3 16"></polygon>
                    <path d="M14.8595944,16 L15.6294852,16 C15.6731669,16 15.7113885,15.9617785 15.7113885,15.9180967 L15.7113885,15.1482059 C15.7113885,15.1045242 15.6731669,15.0663027 15.6294852,15.0663027 L14.8595944,15.0663027 C14.8159126,15.0663027 14.7776911,15.1045242 14.7776911,15.1482059 L14.7776911,15.9180967 C14.7831513,15.9617785 14.8159126,16 14.8595944,16 Z M13.5819033,14.7168487 L14.3517941,14.7168487 C14.3954758,14.7168487 14.4336973,14.6786271 14.4336973,14.6349454 L14.4336973,13.8650546 C14.4336973,13.8213729 14.3954758,13.7831513 14.3517941,13.7831513 L13.5819033,13.7831513 C13.5382215,13.7831513 13.5,13.8213729 13.5,13.8650546 L13.5,14.6404056 C13.5,14.6840874 13.5382215,14.7168487 13.5819033,14.7168487 Z M14.8595944,14.7168487 L15.6294852,14.7168487 C15.6731669,14.7168487 15.7113885,14.6786271 15.7113885,14.6349454 L15.7113885,13.8650546 C15.7113885,13.8213729 15.6731669,13.7831513 15.6294852,13.7831513 L14.8595944,13.7831513 C14.8159126,13.7831513 14.7776911,13.8213729 14.7776911,13.8650546 L14.7776911,14.6404056 C14.7831513,14.6840874 14.8159126,14.7168487 14.8595944,14.7168487 Z M14.3517941,15.0663027 L13.5819033,15.0663027 C13.5382215,15.0663027 13.5,15.1045242 13.5,15.1482059 L13.5,15.9180967 C13.5,15.9617785 13.5382215,16 13.5819033,16 L14.3517941,16 C14.3954758,16 14.4336973,15.9617785 14.4336973,15.9180967 L14.4336973,15.1482059 C14.4336973,15.1045242 14.3954758,15.0663027 14.3517941,15.0663027 Z M16.1427457,16 L16.9126365,16 C16.9563183,16 16.9945398,15.9617785 16.9945398,15.9180967 L16.9945398,15.1482059 C16.9945398,15.1045242 16.9563182,15.0663027 16.9126365,15.0663027 L16.1427457,15.0663027 C16.099064,15.0663027 16.0608424,15.1045242 16.0608424,15.1482059 L16.0608424,15.9180967 C16.0608424,15.9617785 16.099064,16 16.1427457,16 Z M13.5,12.5819033 L13.5,13.3517941 C13.5,13.3954758 13.5382215,13.4336973 13.5819033,13.4336973 L16.9180967,13.4336973 C16.9617785,13.4336973 17,13.3954758 17,13.3517941 L17,12.5819033 C17,12.5382215 16.9617785,12.5 16.9180967,12.5 L13.5819033,12.5 C13.5382215,12.5054602 13.5,12.5382215 13.5,12.5819033 Z M16.1427457,14.7168487 L16.9126365,14.7168487 C16.9563183,14.7168487 16.9945398,14.6786271 16.9945398,14.6349454 L16.9945398,13.8650546 C16.9945398,13.8213729 16.9563182,13.7831513 16.9126365,13.7831513 L16.1427457,13.7831513 C16.099064,13.7831513 16.0608424,13.8213729 16.0608424,13.8650546 L16.0608424,14.6404056 C16.0608424,14.6840874 16.099064,14.7168487 16.1427457,14.7168487 Z" id="形状" fill="#FFFFFF"></path>
                </g>
            </g>
        </g>
    </g>
</svg>