<?xml version="1.0" encoding="UTF-8"?>
<svg width="16px" height="16px" viewBox="0 0 16 16" version="1.1" xmlns="http://www.w3.org/2000/svg" xmlns:xlink="http://www.w3.org/1999/xlink">
    >
    <g id="机器人使用界面-" stroke="none" stroke-width="1" fill="none" fill-rule="evenodd">
        <g id="4-Free/calendar备份" fill="#858C99">
            <path d="M8.2843055,7.58859116 L8.35355339,7.64644661 L11.6868867,10.9797799 C11.8821489,11.1750421 11.8821489,11.4916246 11.6868867,11.6868867 C11.5133204,11.8604531 11.243896,11.8797382 11.0490278,11.7447422 L10.9797799,11.6868867 L8,8.707 L5.02022006,11.6868867 C4.84665371,11.8604531 4.5772293,11.8797382 4.38236116,11.7447422 L4.31311328,11.6868867 C4.13954692,11.5133204 4.12026177,11.243896 4.25525783,11.0490278 L4.31311328,10.9797799 L7.64644661,7.64644661 C7.82001296,7.47288026 8.08943736,7.45359511 8.2843055,7.58859116 Z M8.2843055,3.58859116 L8.35355339,3.64644661 L11.6868867,6.97977994 C11.8821489,7.17504209 11.8821489,7.49162458 11.6868867,7.68688672 C11.5133204,7.86045308 11.243896,7.87973823 11.0490278,7.74474217 L10.9797799,7.68688672 L8,4.707 L5.02022006,7.68688672 C4.84665371,7.86045308 4.5772293,7.87973823 4.38236116,7.74474217 L4.31311328,7.68688672 C4.13954692,7.51332037 4.12026177,7.24389597 4.25525783,7.04902783 L4.31311328,6.97977994 L7.64644661,3.64644661 C7.82001296,3.47288026 8.08943736,3.45359511 8.2843055,3.58859116 Z" id="蒙版"></path>
        </g>
    </g>
</svg>