<?xml version="1.0" encoding="UTF-8"?>
<svg width="16px" height="16px" viewBox="0 0 16 16" version="1.1" xmlns="http://www.w3.org/2000/svg" xmlns:xlink="http://www.w3.org/1999/xlink">
    >
    <g id="机器人使用界面-" stroke="none" stroke-width="1" fill="none" fill-rule="evenodd">
        <g id="icon-chevrons-down" fill="#858C99" transform="translate(4.166667, 4.166667)">
            <path d="M0.784305503,4.08859116 L0.853553391,4.14644661 L3.83333333,7.12633333 L6.81311328,4.14644661 C6.98667963,3.97288026 7.25610403,3.95359511 7.45097217,4.08859116 L7.52022006,4.14644661 C7.69378641,4.32001296 7.71307156,4.58943736 7.57807551,4.7843055 L7.52022006,4.85355339 L4.18688672,8.18688672 C4.01332037,8.36045308 3.74389597,8.37973823 3.54902783,8.24474217 L3.47977994,8.18688672 L0.146446609,4.85355339 C-0.0488155365,4.65829124 -0.0488155365,4.34170876 0.146446609,4.14644661 C0.320012961,3.97288026 0.589437362,3.95359511 0.784305503,4.08859116 Z M0.784305503,0.0885911588 L0.853553391,0.146446609 L3.83333333,3.12633333 L6.81311328,0.146446609 C6.98667963,-0.0271197425 7.25610403,-0.0464048927 7.45097217,0.0885911588 L7.52022006,0.146446609 C7.69378641,0.320012961 7.71307156,0.589437362 7.57807551,0.784305503 L7.52022006,0.853553391 L4.18688672,4.18688672 C4.01332037,4.36045308 3.74389597,4.37973823 3.54902783,4.24474217 L3.47977994,4.18688672 L0.146446609,0.853553391 C-0.0488155365,0.658291245 -0.0488155365,0.341708755 0.146446609,0.146446609 C0.320012961,-0.0271197425 0.589437362,-0.0464048927 0.784305503,0.0885911588 Z" id="蒙版"></path>
        </g>
    </g>
</svg>