<?xml version="1.0" encoding="UTF-8"?>
<svg width="40px" height="40px" viewBox="0 0 40 40" version="1.1" xmlns="http://www.w3.org/2000/svg" xmlns:xlink="http://www.w3.org/1999/xlink">
    <title>切片</title>
    <defs>
        <linearGradient x1="68.3515811%" y1="0%" x2="50%" y2="100%" id="linearGradient-1">
            <stop stop-color="#F15642" offset="0%"></stop>
            <stop stop-color="#EB4D38" offset="100%"></stop>
        </linearGradient>
        <linearGradient x1="33.7255478%" y1="4.40540971%" x2="61.3818776%" y2="98.9167838%" id="linearGradient-2">
            <stop stop-color="#FFFFFF" offset="0%"></stop>
            <stop stop-color="#FFFFFF" stop-opacity="0" offset="100%"></stop>
        </linearGradient>
    </defs>
    <g id="使用界面-格式转换-✅" stroke="none" stroke-width="1" fill="none" fill-rule="evenodd">
        <g id="file-icon" transform="translate(-36.000000, -163.000000)">
            <g id="缩略图备份-2" transform="translate(36.000000, 163.000000)">
                <rect id="矩形" x="0" y="0" width="40" height="40"></rect>
                <g id="编组" transform="translate(10.000000, 10.000000)" fill-rule="nonzero">
                    <path d="M13.937868,0.15 L19.85,6.06213206 L19.8500053,17.2233588 C19.8425662,18.1046133 19.7482671,18.4410221 19.5706414,18.7791761 C19.3914241,19.1191482 19.1278105,19.3861954 18.7938803,19.5666729 C18.4264825,19.7585983 18.0791759,19.8467707 17.2055555,19.85 L17.2055555,19.85 L2.84888888,19.85 C1.90078281,19.85 1.55528721,19.7553261 1.20851146,19.5673497 C0.876641147,19.3898834 0.605274145,19.1153437 0.430469717,18.7813257 C0.241664938,18.4087163 0.154259762,18.0565862 0.15,17.170625 L0.15,17.170625 L0.15,2.88449999 C0.15,1.92312718 0.243760948,1.57294472 0.429446785,1.22178138 C0.608644113,0.880804398 0.872226365,0.61378467 1.20581263,0.43348712 C1.57332289,0.242581514 1.92071295,0.154306711 2.79444445,0.15 L2.79444445,0.15 L13.937868,0.15 Z" id="路径" stroke="url(#linearGradient-2)" stroke-width="0.3" fill="url(#linearGradient-1)"></path>
                    <path d="M9.91273579,9.21773027 C9.91273579,9.21773027 10.2960526,10.0600186 10.839446,10.6431642 C11.3149333,11.1534165 11.85976,11.6801964 11.9885371,11.8039187 L12.0168398,11.8310422 L12.0168398,11.8310422 L12.0526574,11.8277081 C12.3221883,11.8041645 14.0540464,11.6800544 15.2362942,12.2559953 C16.6471132,12.9433164 15.9678715,15.0166172 14.3036929,14.6602637 C12.6394936,14.3039102 11.6106638,12.6053444 11.6106638,12.6053444 C11.6106638,12.6053444 10.9838198,12.6193334 9.94795802,12.7732125 C9.07854335,12.9023431 8.08214031,13.2672927 7.87145093,13.3467984 L7.83105536,13.3622148 L7.83105536,13.3622148 C7.83105536,13.3622148 6.62806423,15.5673526 5.47332217,15.9237259 C4.31858011,16.2800794 3.42057876,15.3338134 4.45444919,14.2067192 C5.34595786,13.2348693 7.27662652,12.861361 7.27662652,12.861361 C7.27662652,12.861361 8.05450299,11.9552021 8.46204803,11.1858069 C8.86961381,10.4163722 9.24320196,9.41209233 9.24320196,9.41209233 C9.24320196,9.41209233 8.46204803,7.69510545 8.39409274,6.72321601 C8.32619969,5.75134635 8.93750687,5.07100989 9.5488348,5.00622912 C10.3252385,4.92393739 11.2275752,5.62174525 9.91273579,9.21773027 Z M6.72995567,13.7774923 C6.72995567,13.7774923 5.71954599,14.0609526 5.26105522,14.4739942 C4.80258521,14.8870359 4.73736804,15.2309833 4.87898306,15.30819 C5.11672285,15.4377713 5.6176753,15.1866815 5.93183367,14.8384602 C6.18639635,14.5562662 6.72995567,13.7774923 6.72995567,13.7774923 Z M12.6758568,12.5154151 C12.6758568,12.5154151 12.9717196,12.7844969 13.3065266,13.0789651 L13.5326814,13.276364 C13.7589669,13.4721752 13.9771861,13.6552005 14.1112152,13.7532341 C14.4508464,14.0016131 15.0395433,13.9260092 15.1640865,13.5804591 C15.3843189,12.9693355 14.2838415,12.6355187 13.7489529,12.5869431 C13.2140643,12.5383674 12.6758568,12.5154151 12.6758568,12.5154151 Z M9.62780483,10.1425083 C9.62780483,10.1425083 9.45127872,10.7808579 9.07335523,11.4368571 C8.69545247,12.0928562 8.36013585,12.4654346 8.36013585,12.4654346 C8.36013585,12.4654346 9.36946687,12.2271071 9.76112248,12.1495839 C10.2111292,12.0604658 10.8127907,12.0091794 11.0410093,11.9976637 C11.0410093,11.9976637 10.5562989,11.4798134 10.3579715,11.2277343 C10.1586485,10.9743889 9.62780483,10.1425083 9.62780483,10.1425083 Z M9.59417981,5.697369 C9.59417981,5.697369 9.00550363,5.71895599 9.04767491,6.60491298 C9.07663265,7.21362259 9.52626601,8.39704871 9.52626601,8.39704871 C9.52626601,8.39704871 9.53510097,8.37647317 9.55010056,8.34041443 L9.65019752,8.09082517 C9.76013833,7.80662293 9.90462513,7.39690576 9.91275653,7.18758365 C9.92601155,6.8474352 10.1489406,5.83775368 9.59417981,5.697369 Z" id="形状" fill="#FFFFFF"></path>
                    <path d="M14.15,0.362132034 L19.637868,5.85 L15.667,5.85 C15.1297021,5.85 14.9330101,5.79980687 14.7351979,5.69343965 C14.5525943,5.59674106 14.4032589,5.44740565 14.3074726,5.26655252 C14.1956699,5.04853724 14.15,4.84515889 14.15,4.33300001 L14.15,4.33300001 L14.15,0.362132034 Z" id="路径" stroke="url(#linearGradient-2)" stroke-width="0.3" fill="#FF7563"></path>
                </g>
            </g>
        </g>
    </g>
</svg>