<?xml version="1.0" encoding="UTF-8"?>
<svg width="40px" height="40px" viewBox="0 0 40 40" version="1.1" xmlns="http://www.w3.org/2000/svg" xmlns:xlink="http://www.w3.org/1999/xlink">
    <title>切片</title>
    <defs>
        <linearGradient x1="68.3515811%" y1="0%" x2="50%" y2="100%" id="linearGradient-1">
            <stop stop-color="#E57A2E" offset="0%"></stop>
            <stop stop-color="#EA8218" offset="100%"></stop>
        </linearGradient>
        <linearGradient x1="33.7255478%" y1="4.40540971%" x2="61.3818776%" y2="98.9167838%" id="linearGradient-2">
            <stop stop-color="#FFFFFF" offset="0%"></stop>
            <stop stop-color="#FFFFFF" stop-opacity="0" offset="100%"></stop>
        </linearGradient>
    </defs>
    <g id="使用界面-格式转换-✅" stroke="none" stroke-width="1" fill="none" fill-rule="evenodd">
        <g id="file-icon" transform="translate(-36.000000, -283.000000)">
            <g id="缩略图备份" transform="translate(36.000000, 283.000000)">
                <rect id="矩形" x="0" y="0" width="40" height="40"></rect>
                <g id="编组" transform="translate(10.000000, 10.000000)" fill-rule="nonzero">
                    <path d="M13.937868,0.15 L19.85,6.06213206 L19.8500053,17.2233588 C19.8425662,18.1046133 19.7482671,18.4410221 19.5706414,18.7791761 C19.3914241,19.1191482 19.1278105,19.3861954 18.7938803,19.5666729 C18.4264825,19.7585983 18.0791759,19.8467707 17.2055555,19.85 L17.2055555,19.85 L2.84888888,19.85 C1.90078281,19.85 1.55528721,19.7553261 1.20851146,19.5673497 C0.876641147,19.3898834 0.605274145,19.1153437 0.430469717,18.7813257 C0.241664938,18.4087163 0.154259762,18.0565862 0.15,17.170625 L0.15,17.170625 L0.15,2.88449999 C0.15,1.92312718 0.243760948,1.57294472 0.429446785,1.22178138 C0.608644113,0.880804398 0.872226365,0.61378467 1.20581263,0.43348712 C1.57332289,0.242581514 1.92071295,0.154306711 2.79444445,0.15 L2.79444445,0.15 L13.937868,0.15 Z" id="路径" stroke="url(#linearGradient-2)" stroke-width="0.3" fill="url(#linearGradient-1)"></path>
                    <path d="M14.15,0.362132034 L19.637868,5.85 L15.667,5.85 C15.1297021,5.85 14.9330101,5.79980687 14.7351979,5.69343965 C14.5525943,5.59674106 14.4032589,5.44740565 14.3074726,5.26655252 C14.1956699,5.04853724 14.15,4.84515889 14.15,4.33300001 L14.15,4.33300001 L14.15,0.362132034 Z" id="路径" stroke="url(#linearGradient-2)" stroke-width="0.3" fill="#EBA06E"></path>
                    <path d="M5.03921569,16 L5.03921569,12.8109244 L6.65686275,12.8109244 C7.09477124,12.8109244 7.46732026,12.7426471 7.7745098,12.6060924 C8.08169935,12.4695378 8.33169935,12.2892157 8.5245098,12.0651261 C8.71732026,11.8410364 8.85784314,11.5836835 8.94607843,11.2930672 C9.03431373,11.002451 9.07843137,10.7065826 9.07843137,10.4054622 C9.07843137,10.0973389 9.03431373,9.79971989 8.94607843,9.51260504 C8.85784314,9.2254902 8.71732026,8.96988796 8.5245098,8.74579832 C8.33169935,8.52170868 8.08169935,8.34138655 7.7745098,8.20483193 C7.46732026,8.06827731 7.09477124,8 6.65686275,8 L3.5,8 L3.5,16 L5.03921569,16 Z M6.23529412,11.5294118 L5.03921569,11.5294118 L5.03921569,9.28151261 L6.23529412,9.28151261 C6.41176471,9.28151261 6.58169935,9.29551821 6.74509804,9.32352941 C6.90849673,9.35154062 7.05228758,9.40581232 7.17647059,9.48634454 C7.30065359,9.56687675 7.4003268,9.68067227 7.4754902,9.82773109 C7.55065359,9.97478992 7.58823529,10.1673669 7.58823529,10.4054622 C7.58823529,10.6435574 7.55065359,10.8361345 7.4754902,10.9831933 C7.4003268,11.1302521 7.30065359,11.2440476 7.17647059,11.3245798 C7.05228758,11.405112 6.90849673,11.4593838 6.74509804,11.487395 C6.58169935,11.5154062 6.41176471,11.5294118 6.23529412,11.5294118 Z" id="P" fill="#FFFFFF"></path>
                    <path d="M13.8461538,12.3076923 L13.8461538,14.1538462 L15.6923077,14.1538462 C15.6923077,15.1712521 14.8635598,16 13.8461538,16 C12.8287479,16 12,15.1712521 12,14.1538462 C12,13.1364402 12.8287479,12.3076923 13.8461538,12.3076923 L13.8461538,12.3076923 Z M14.4,12 C15.2817518,12 16,12.7182482 16,13.6 L16,13.6 L14.4,13.6 Z" id="路径-49" fill="#FFFFFF"></path>
                </g>
            </g>
        </g>
    </g>
</svg>