<?xml version="1.0" encoding="UTF-8"?>
<svg width="40px" height="40px" viewBox="0 0 40 40" version="1.1" xmlns="http://www.w3.org/2000/svg" xmlns:xlink="http://www.w3.org/1999/xlink">
    <title>切片</title>
    <defs>
        <linearGradient x1="50%" y1="0%" x2="50%" y2="100%" id="linearGradient-1">
            <stop stop-color="#0CA6F2" offset="0%"></stop>
            <stop stop-color="#00BAEA" offset="100%"></stop>
        </linearGradient>
        <linearGradient x1="33.7255478%" y1="4.40540971%" x2="61.3818776%" y2="98.9167838%" id="linearGradient-2">
            <stop stop-color="#FFFFFF" offset="0%"></stop>
            <stop stop-color="#FFFFFF" stop-opacity="0" offset="100%"></stop>
        </linearGradient>
    </defs>
    <g id="页面-1" stroke="none" stroke-width="1" fill="none" fill-rule="evenodd">
        <g id="默认-上传-滚动到底部" transform="translate(-80.000000, -185.000000)">
            <g id="编组" transform="translate(20.000000, 180.000000)">
                <g id="Table/Cell/Text/1st/1-Normal备份-3" transform="translate(40.000000, 0.000000)">
                    <g id="缩略图" transform="translate(20.000000, 5.000000)">
                        <rect id="矩形" x="0" y="0" width="40" height="40"></rect>
                        <g id="编组" transform="translate(10.000000, 10.000000)" fill-rule="nonzero">
                            <path d="M13.937868,0.15 L19.85,6.06213206 L19.8500053,17.2233588 C19.8425662,18.1046133 19.7482671,18.4410221 19.5706414,18.7791761 C19.3914241,19.1191482 19.1278105,19.3861954 18.7938803,19.5666729 C18.4264825,19.7585983 18.0791759,19.8467707 17.2055555,19.85 L17.2055555,19.85 L2.84888888,19.85 C1.90078281,19.85 1.55528721,19.7553261 1.20851146,19.5673497 C0.876641147,19.3898834 0.605274145,19.1153437 0.430469717,18.7813257 C0.241664938,18.4087163 0.154259762,18.0565862 0.15,17.170625 L0.15,17.170625 L0.15,2.88449999 C0.15,1.92312718 0.243760948,1.57294472 0.429446785,1.22178138 C0.608644113,0.880804398 0.872226365,0.61378467 1.20581263,0.43348712 C1.57332289,0.242581514 1.92071295,0.154306711 2.79444445,0.15 L2.79444445,0.15 L13.937868,0.15 Z" id="路径" stroke="url(#linearGradient-2)" stroke-width="0.3" fill="url(#linearGradient-1)"></path>
                            <path d="M14,0 L20,6 L15.667,6 C15.087,6 14.877,5.94 14.665,5.826 C14.4558294,5.71523276 14.2847672,5.54417057 14.174,5.33500001 L14.157,5.30299999 C14.054,5.10099998 14,4.884 14,4.33300001 L14,0 Z" id="路径" stroke="url(#linearGradient-2)" stroke-width="0.3" fill="#54C0F5"></path>
                            <polygon id="W" fill="#FFFFFF" points="5.33901919 16 6.48081023 11.2352941 6.5 11.2352941 7.66098081 16 9.15778252 16 11 9 9.52238806 9 8.39978678 13.8235294 8.38059701 13.8235294 7.21002132 9 5.79957356 9 4.6098081 13.7647059 4.59061834 13.7647059 3.50639659 9 2 9 3.81343284 16"></polygon>
                            <path d="M13,12.5 L16.3633634,12.5 L16.3633634,13 L13,13 L13,12.5 Z M13,13.5 L15.9429429,13.5 L15.9429429,14 L13,14 L13,13.5 Z M13,14.5 L15.9429429,14.5 L15.9429429,15 L13,15 L13,14.5 Z M13,15.5 L16.7837838,15.5 L16.7837838,16 L13,16 L13,15.5 Z" id="形状" fill="#FFFFFF"></path>
                        </g>
                    </g>
                </g>
            </g>
        </g>
    </g>
</svg>