<?xml version="1.0" encoding="UTF-8"?>
<svg width="16px" height="16px" viewBox="0 0 16 16" version="1.1" xmlns="http://www.w3.org/2000/svg" xmlns:xlink="http://www.w3.org/1999/xlink">
    >
    <g id="4-Free/zoom-out" stroke="none" stroke-width="1" fill="none" fill-rule="evenodd">
        <g id="icon-zoom-out" transform="translate(1.500000, 1.500000)" fill="#030A1A">
            <path d="M5.16666667,0 C8.02013787,0 10.3333333,2.31319546 10.3333333,5.16666667 C10.3333333,6.41331968 9.89180709,7.55684871 9.15659916,8.4494092 L12.8535534,12.1464466 C13.0488155,12.3417088 13.0488155,12.6582912 12.8535534,12.8535534 C12.679987,13.0271197 12.4105626,13.0464049 12.2156945,12.9114088 L12.1464466,12.8535534 L8.4494092,9.15659916 C7.55684871,9.89180709 6.41331968,10.3333333 5.16666667,10.3333333 C2.31319546,10.3333333 0,8.02013787 0,5.16666667 C0,2.31319546 2.31319546,0 5.16666667,0 Z M5.16666667,1 C2.86548021,1 1,2.86548021 1,5.16666667 C1,7.46785312 2.86548021,9.33333333 5.16666667,9.33333333 C7.46785312,9.33333333 9.33333333,7.46785312 9.33333333,5.16666667 C9.33333333,2.86548021 7.46785312,1 5.16666667,1 Z M7.16666667,4.66666667 C7.44280904,4.66666667 7.66666667,4.89052429 7.66666667,5.16666667 C7.66666667,5.41212656 7.48979151,5.61627504 7.2565423,5.658611 L7.16666667,5.66666667 L3.16666667,5.66666667 C2.89052429,5.66666667 2.66666667,5.44280904 2.66666667,5.16666667 C2.66666667,4.92120678 2.84354183,4.7170583 3.07679103,4.67472234 L3.16666667,4.66666667 L7.16666667,4.66666667 Z" id="蒙版"></path>
        </g>
    </g>
</svg>