<?xml version="1.0" encoding="UTF-8"?>
<svg width="16px" height="16px" viewBox="0 0 16 16" version="1.1" xmlns="http://www.w3.org/2000/svg" xmlns:xlink="http://www.w3.org/1999/xlink">
    >
    <defs>
        <filter color-interpolation-filters="auto" id="filter-1">
            <feColorMatrix in="SourceGraphic" type="matrix" values="0 0 0 0 0.011765 0 0 0 0 0.039216 0 0 0 0 0.101961 0 0 0 1.000000 0"></feColorMatrix>
        </filter>
    </defs>
    <g id="1-Arrow/rotate-2" stroke="none" stroke-width="1" fill="none" fill-rule="evenodd">
        <g filter="url(#filter-1)" id="icon-rotate-2">
            <g transform="translate(2.144217, 2.144217)">
                <path d="M8.04255107,0.425308429 C8.29870502,0.52845767 8.42273984,0.819730455 8.3195906,1.0758844 C8.21644136,1.33203835 7.92516857,1.45607317 7.66901463,1.35292393 C5.18215432,0.351503675 2.35434419,1.55569076 1.35292393,4.04255107 C0.448863978,6.28763329 1.34239103,8.81059225 3.35443705,10.0167626 L3.35578285,7.85578285 C3.35578285,7.61032296 3.53265801,7.40617448 3.76590722,7.36383852 L3.85578285,7.35578285 C4.10124274,7.35578285 4.30539122,7.53265801 4.34772718,7.76590722 L4.35578285,7.85578285 L4.35578285,11.1891162 C4.35578285,11.4345761 4.17890769,11.6387246 3.94565848,11.6810605 L3.85578285,11.6891162 L0.522449514,11.6891162 C0.24630714,11.6891162 0.0224495145,11.4652586 0.0224495145,11.1891162 C0.0224495145,10.9436563 0.199324675,10.7395078 0.432573882,10.6971719 L0.522449514,10.6891162 L2.55189745,10.690126 C0.329128165,9.17416252 -0.620974823,6.2672847 0.425308429,3.66901463 C1.63302717,0.669846419 5.04338286,-0.782410312 8.04255107,0.425308429 Z M6.52244951,10.6491162 C6.7679094,10.6491162 6.97205788,10.8259913 7.01439385,11.0592405 L7.02244951,11.1491162 C7.02244951,11.4319252 6.79859189,11.6557828 6.52244951,11.6557828 C6.27698963,11.6557828 6.07284114,11.4789077 6.03050518,11.2456585 L6.02244951,11.1557828 C6.02244951,10.8729738 6.24630714,10.6491162 6.52244951,10.6491162 Z M9.08244951,9.60244951 C9.3279094,9.60244951 9.53205788,9.77932468 9.57439385,10.0125739 L9.58244951,10.1024495 C9.58244951,10.3852586 9.35859189,10.6091162 9.08244951,10.6091162 C8.83698963,10.6091162 8.63284114,10.432241 8.59050518,10.1989918 L8.58244951,10.1091162 C8.58244951,9.82630714 8.80630714,9.60244951 9.08244951,9.60244951 Z M10.7691162,7.42244951 C11.0145761,7.42244951 11.2187246,7.59932468 11.2610605,7.83257388 L11.2691162,7.92244951 C11.2691162,8.20525856 11.0452586,8.42911618 10.7691162,8.42911618 C10.5236563,8.42911618 10.3195078,8.25224102 10.2771719,8.01899181 L10.2691162,7.92911618 C10.2691162,7.64630714 10.4929738,7.42244951 10.7691162,7.42244951 Z M11.1491162,4.68911618 C11.3945761,4.68911618 11.5987246,4.86599134 11.6410605,5.09924055 L11.6491162,5.18911618 C11.6491162,5.47192522 11.4252586,5.69578285 11.1491162,5.69578285 C10.9036563,5.69578285 10.6995078,5.51890769 10.6571719,5.28565848 L10.6491162,5.19578285 C10.6491162,4.91297381 10.8729738,4.68911618 11.1491162,4.68911618 Z M10.1024495,2.12911618 C10.3479094,2.12911618 10.5520579,2.30599134 10.5943938,2.53924055 L10.6024495,2.62911618 C10.6024495,2.91192522 10.3785919,3.13578285 10.1024495,3.13578285 C9.85698963,3.13578285 9.65284114,2.95890769 9.61050518,2.72565848 L9.60244951,2.63578285 C9.60244951,2.35297381 9.82630714,2.12911618 10.1024495,2.12911618 Z" id="蒙版" fill="#030A1A"></path>
            </g>
        </g>
    </g>
</svg>