<?xml version="1.0" encoding="UTF-8"?>
<svg width="16px" height="16px" viewBox="0 0 16 16" version="1.1" xmlns="http://www.w3.org/2000/svg" xmlns:xlink="http://www.w3.org/1999/xlink">
    >
    <defs>
        <filter color-interpolation-filters="auto" id="filter-1">
            <feColorMatrix in="SourceGraphic" type="matrix" values="0 0 0 0 0.011765 0 0 0 0 0.039216 0 0 0 0 0.101961 0 0 0 1.000000 0"></feColorMatrix>
        </filter>
    </defs>
    <g id="1-Arrow/rotate-clockwise-2" stroke="none" stroke-width="1" fill="none" fill-rule="evenodd">
        <g filter="url(#filter-1)" id="icon-rotate-clockwise-2">
            <g transform="translate(2.206667, 2.144217)">
                <path d="M11.2238078,3.66901463 C12.2699347,6.26689661 11.3202718,9.17329416 9.09821466,10.6894466 L11.1266667,10.6891162 C11.3721266,10.6891162 11.576275,10.8659913 11.618611,11.0992405 L11.6266667,11.1891162 C11.6266667,11.4345761 11.4497915,11.6387246 11.2165423,11.6810605 L11.1266667,11.6891162 L7.79333333,11.6891162 C7.54787344,11.6891162 7.34372496,11.512241 7.301389,11.2789918 L7.29333333,11.1891162 L7.29333333,7.85578285 C7.29333333,7.57964047 7.51719096,7.35578285 7.79333333,7.35578285 C8.03879322,7.35578285 8.2429417,7.53265801 8.28527766,7.76590722 L8.29333333,7.85578285 L8.29417714,10.0170634 C10.3065765,8.81101187 11.2003274,6.28781999 10.2961922,4.04255107 C9.29477199,1.55569076 6.46696186,0.351503675 3.98010156,1.35292393 C3.72394761,1.45607317 3.43267482,1.33203835 3.32952558,1.0758844 C3.22637634,0.819730455 3.35041116,0.52845767 3.60656511,0.425308429 C6.60573332,-0.782410312 10.016089,0.669846419 11.2238078,3.66901463 Z M5.12666667,10.6491162 C5.37212656,10.6491162 5.57627504,10.8259913 5.618611,11.0592405 L5.62666667,11.1491162 C5.62666667,11.4319252 5.40280904,11.6557828 5.12666667,11.6557828 C4.88120678,11.6557828 4.6770583,11.4789077 4.63472234,11.2456585 L4.62666667,11.1557828 C4.62666667,10.8729738 4.85052429,10.6491162 5.12666667,10.6491162 Z M2.56666667,9.60244951 C2.81212656,9.60244951 3.01627504,9.77932468 3.058611,10.0125739 L3.06666667,10.1024495 C3.06666667,10.3852586 2.84280904,10.6091162 2.56666667,10.6091162 C2.32120678,10.6091162 2.1170583,10.432241 2.07472234,10.1989918 L2.06666667,10.1091162 C2.06666667,9.82630714 2.29052429,9.60244951 2.56666667,9.60244951 Z M0.88,7.42244951 C1.12545989,7.42244951 1.32960837,7.59932468 1.37194433,7.83257388 L1.38,7.92244951 C1.38,8.20525856 1.15614237,8.42911618 0.88,8.42911618 C0.634540111,8.42911618 0.43039163,8.25224102 0.388055669,8.01899181 L0.38,7.92911618 C0.38,7.64630714 0.603857625,7.42244951 0.88,7.42244951 Z M0.5,4.68911618 C0.745459889,4.68911618 0.94960837,4.86599134 0.991944331,5.09924055 L1,5.18911618 C1,5.47192522 0.776142375,5.69578285 0.5,5.69578285 C0.254540111,5.69578285 0.0503916296,5.51890769 0.00805566941,5.28565848 L0,5.19578285 C0,4.91297381 0.223857625,4.68911618 0.5,4.68911618 Z M1.54666667,2.12911618 C1.79212656,2.12911618 1.99627504,2.30599134 2.038611,2.53924055 L2.04666667,2.62911618 C2.04666667,2.91192522 1.82280904,3.13578285 1.54666667,3.13578285 C1.30120678,3.13578285 1.0970583,2.95890769 1.05472234,2.72565848 L1.04666667,2.63578285 C1.04666667,2.35297381 1.27052429,2.12911618 1.54666667,2.12911618 Z" id="蒙版" fill="#030A1A"></path>
            </g>
        </g>
    </g>
</svg>