<?xml version="1.0" encoding="UTF-8"?>
<svg width="16px" height="16px" viewBox="0 0 16 16" version="1.1" xmlns="http://www.w3.org/2000/svg" xmlns:xlink="http://www.w3.org/1999/xlink">
    >
    <g id="4-Free/relation-one-to-one" stroke="none" stroke-width="1" fill="none" fill-rule="evenodd">
        <g id="icon-relation-one-to-one" transform="translate(1.500000, 2.833333)" fill="#030A1A">
            <path d="M11.1666667,0 C12.1791887,0 13,0.820811292 13,1.83333333 L13,1.83333333 L13,8.5 C13,9.51252204 12.1791887,10.3333333 11.1666667,10.3333333 L11.1666667,10.3333333 L1.83333333,10.3333333 C0.820811292,10.3333333 0,9.51252204 0,8.5 L0,8.5 L0,1.83333333 C0,0.820811292 0.820811292,0 1.83333333,0 L1.83333333,0 Z M11.1666667,1 L1.83333333,1 C1.37309604,1 1,1.37309604 1,1.83333333 L1,1.83333333 L1,8.5 C1,8.96023729 1.37309604,9.33333333 1.83333333,9.33333333 L1.83333333,9.33333333 L11.1666667,9.33333333 C11.626904,9.33333333 12,8.96023729 12,8.5 L12,8.5 L12,1.83333333 C12,1.37309604 11.626904,1 11.1666667,1 L11.1666667,1 Z M4.5,3.33333333 C4.74545989,3.33333333 4.94960837,3.51020849 4.99194433,3.7434577 L5,3.83333333 L5,6.5 C5,6.77614237 4.77614237,7 4.5,7 C4.25454011,7 4.05039163,6.82312484 4.00805567,6.58987563 L4,6.5 L4,4.33266667 L3.83333333,4.33333333 C3.58787344,4.33333333 3.38372496,4.15645817 3.341389,3.92320897 L3.33333333,3.83333333 C3.33333333,3.58787344 3.51020849,3.38372496 3.7434577,3.341389 L3.83333333,3.33333333 L4.5,3.33333333 Z M9.16666667,3.33333333 C9.41212656,3.33333333 9.61627504,3.51020849 9.658611,3.7434577 L9.66666667,3.83333333 L9.66666667,6.5 C9.66666667,6.77614237 9.44280904,7 9.16666667,7 C8.92120678,7 8.7170583,6.82312484 8.67472234,6.58987563 L8.66666667,6.5 L8.666,4.33266667 L8.5,4.33333333 C8.25454011,4.33333333 8.05039163,4.15645817 8.00805567,3.92320897 L8,3.83333333 C8,3.58787344 8.17687516,3.38372496 8.41012437,3.341389 L8.5,3.33333333 L9.16666667,3.33333333 Z M6.5,5.66666667 C6.74545989,5.66666667 6.94960837,5.84354183 6.99194433,6.07679103 L7,6.16666667 C7,6.44947571 6.77614237,6.67333333 6.5,6.67333333 C6.25454011,6.67333333 6.05039163,6.49645817 6.00805567,6.26320897 L6,6.17333333 C6,5.89052429 6.22385763,5.66666667 6.5,5.66666667 Z M6.5,3.66666667 C6.74545989,3.66666667 6.94960837,3.84354183 6.99194433,4.07679103 L7,4.16666667 C7,4.44947571 6.77614237,4.67333333 6.5,4.67333333 C6.25454011,4.67333333 6.05039163,4.49645817 6.00805567,4.26320897 L6,4.17333333 C6,3.89052429 6.22385763,3.66666667 6.5,3.66666667 Z" id="蒙版"></path>
        </g>
    </g>
</svg>