<?xml version="1.0" encoding="UTF-8"?>
<svg width="16px" height="16px" viewBox="0 0 16 16" version="1.1" xmlns="http://www.w3.org/2000/svg" xmlns:xlink="http://www.w3.org/1999/xlink">
    <g id="4-Free/api-file" stroke="none" stroke-width="1" fill="none" fill-rule="evenodd">
        <g id="icon-api-file" transform="translate(2.833333, 1.500000)" fill="#030A1A">
            <path d="M6.5,0 C6.52896443,0 6.55766975,0.00251316923 6.58582442,0.00741874956 L6.5,0 C6.53717995,0 6.57341209,0.00405810679 6.60827763,0.0117555499 C6.62775202,0.0161752938 6.64709994,0.0217060499 6.66603209,0.0283713194 C6.67677972,0.032003496 6.68758225,0.0362330462 6.69819437,0.04081971 C6.71222744,0.0470222758 6.72585435,0.0536592396 6.7391668,0.06090986 C6.75136271,0.0674500504 6.76347123,0.0747354237 6.77523219,0.0825044328 C6.80320797,0.101010894 6.82948156,0.122374776 6.85355339,0.146446609 L6.80505204,0.103808328 C6.81761754,0.113497606 6.82970924,0.123771313 6.84128643,0.134588748 L6.85355339,0.146446609 L10.1868867,3.47977994 C10.1934505,3.48634372 10.1998129,3.49307119 10.20597,3.49995278 C10.211542,3.50615767 10.2172725,3.51289478 10.2228241,3.51978217 C10.2333737,3.53292707 10.2430701,3.5462985 10.2520655,3.56008378 C10.2607209,3.57320489 10.2688414,3.58700416 10.276299,3.60120609 C10.2791846,3.6069341 10.2819936,3.61255343 10.2846952,3.61822232 C10.2934112,3.63619034 10.3010388,3.65499232 10.3075178,3.67432112 C10.3110442,3.68527069 10.3142934,3.69618982 10.3171688,3.70721968 C10.3207521,3.72049472 10.3237358,3.73431036 10.3261362,3.74832518 C10.3308804,3.77635532 10.3333333,3.80471787 10.3333333,3.83333333 L10.3333333,3.83333333 L10.3333333,11.1666667 C10.3333333,12.1791887 9.51252204,13 8.5,13 L8.5,13 L1.83333333,13 C0.820811292,13 0,12.1791887 0,11.1666667 L0,11.1666667 L0,1.83333333 C0,0.820811292 0.820811292,0 1.83333333,0 L1.83333333,0 Z M6,1 L1.83333333,1 C1.37309604,1 1,1.37309604 1,1.83333333 L1,1.83333333 L1,11.1666667 C1,11.626904 1.37309604,12 1.83333333,12 L1.83333333,12 L8.5,12 C8.96023729,12 9.33333333,11.626904 9.33333333,11.1666667 L9.33333333,11.1666667 L9.332,4.333 L7.16666667,4.33333333 C6.56528994,4.33333333 6.07018681,3.87832198 6.00684584,3.29378785 L6,3.16666667 L6,1 Z M4.05694013,6.71945307 C4.27648613,6.82922607 4.37998111,7.078726 4.31353532,7.30628365 L4.28054693,7.39027346 L3.72566667,8.5 L4.28054693,9.60972654 C4.39031993,9.82927253 4.32341595,10.0909695 4.13372474,10.2331481 L4.05694013,10.2805469 C3.83739413,10.3903199 3.5756972,10.323416 3.43351855,10.1337247 L3.38611974,10.0569401 L2.71945307,8.7236068 C2.66314757,8.6109958 2.65188647,8.4824345 2.68566977,8.36344337 L2.71945307,8.2763932 L3.38611974,6.94305987 C3.50961436,6.69607062 3.80995088,6.59595845 4.05694013,6.71945307 Z M6.89981478,6.86627526 L6.9472136,6.94305987 L7.61388026,8.2763932 C7.67018576,8.3890042 7.68144686,8.5175655 7.64766356,8.63655663 L7.61388026,8.7236068 L6.9472136,10.0569401 C6.82371897,10.3039294 6.52338245,10.4040416 6.2763932,10.2805469 C6.0568472,10.1707739 5.95335223,9.921274 6.01979801,9.69371635 L6.0527864,9.60972654 L6.60666667,8.5 L6.0527864,7.39027346 C5.94301341,7.17072747 6.00991738,6.90903054 6.1996086,6.76685189 L6.2763932,6.71945307 C6.4959392,6.60968007 6.75763613,6.67658405 6.89981478,6.86627526 Z M7,1.708 L7,3.16666667 C7,3.24030463 7.04775629,3.30278852 7.11398711,3.32483656 L7.16666667,3.33333333 L8.627,3.333 L7,1.708 Z" id="蒙版"></path>
        </g>
    </g>
</svg>