<?xml version="1.0" encoding="UTF-8"?>
<svg width="16px" height="16px" viewBox="0 0 16 16" version="1.1" xmlns="http://www.w3.org/2000/svg" xmlns:xlink="http://www.w3.org/1999/xlink">
    <g id="视觉优化" stroke="none" stroke-width="1" fill="none" fill-rule="evenodd">
        <g id="业务支持bug优化" transform="translate(-851.000000, -3252.000000)" fill="#1A66FF">
            <g id="编组-2" transform="translate(32.000000, 2977.000000)">
                <g id="编组备份-3" transform="translate(585.000000, 113.000000)">
                    <g id="2-Edit/copy" transform="translate(234.000000, 162.000000)">
                        <g id="CopyOutlined" transform="translate(8.000000, 8.000000) scale(1, -1) translate(-8.000000, -8.000000) translate(2.166667, 2.166667)">
                            <path d="M7.83410772,0 C7.86293331,0 7.89150356,0.00248919914 7.9195308,0.00734905184 L7.83333333,0 C7.8698601,0 7.90547206,0.00391677209 7.93977212,0.0113532315 C7.96072696,0.015818147 7.98140923,0.0217085519 8.00161436,0.0288930677 C8.00811664,0.0313535169 8.01421475,0.033674939 8.02025439,0.0361108888 C8.04040065,0.0440128822 8.06022197,0.0535074365 8.07936948,0.0642847466 C8.08481196,0.0676983873 8.09053919,0.0710888145 8.09619148,0.0745887459 C8.12874232,0.0942454961 8.15896217,0.117952785 8.18636137,0.145151631 L8.14510539,0.109081879 C8.15267956,0.115130512 8.16007406,0.121394675 8.1672796,0.12786508 L8.18636137,0.145151631 L11.5189203,3.4533423 C11.6134833,3.54721377 11.6666667,3.67494652 11.6666667,3.80819066 L11.6666667,3.80819066 L11.6666667,7.16666667 C11.6666667,8.17918871 10.8458554,9 9.83333333,9 L9.83333333,9 L9,9 L9,9.83333333 C9,10.7952293 8.25921781,11.5841063 7.3170285,11.6605892 L7.16666667,11.6666667 L1.83333333,11.6666667 C0.871437394,11.6666667 0.0825604061,10.9258845 0.00607744712,9.98369517 L0,9.83333333 L0,4.5 C0,3.53810406 0.740782191,2.74922707 1.6829715,2.67274411 L1.83333333,2.66666667 L2.666,2.666 L2.66666667,1.83333333 C2.66666667,0.871437394 3.40744886,0.0825604061 4.34963816,0.00607744712 L4.5,0 Z M2.666,3.666 L1.83333333,3.66666667 C1.40849891,3.66666667 1.05791502,3.98457099 1.00649285,4.39546844 L1,4.5 L1,9.83333333 C1,10.2581678 1.31790432,10.6087516 1.72880177,10.6601738 L1.83333333,10.6666667 L7.16666667,10.6666667 C7.59150109,10.6666667 7.94208498,10.3487623 7.99350715,9.9378649 L8,9.83333333 L8,9 L4.5,9 C3.53810406,9 2.74922707,8.25921781 2.67274411,7.3170285 L2.66666667,7.16666667 L2.666,3.666 Z M7.333,0.999 L4.5,1 C4.03976271,1 3.66666667,1.37309604 3.66666667,1.83333333 L3.66666667,1.83333333 L3.66666667,7.16666667 C3.66666667,7.62690396 4.03976271,8 4.5,8 L4.5,8 L9.83333333,8 C10.2935706,8 10.6666667,7.62690396 10.6666667,7.16666667 L10.6666667,7.16666667 L10.666,4.333 L8.5,4.33333333 C7.89862327,4.33333333 7.40352014,3.87832198 7.34017917,3.29378785 L7.33333333,3.16666667 L7.333,0.999 Z M8.333,1.7 L8.33333333,3.16666667 C8.33333333,3.24030463 8.38108963,3.30278852 8.44732044,3.32483656 L8.5,3.33333333 L9.979,3.333 L8.333,1.7 Z" id="蒙版"></path>
                        </g>
                    </g>
                </g>
            </g>
        </g>
    </g>
</svg>