<?xml version="1.0" encoding="UTF-8"?>
<svg width="16px" height="16px" viewBox="0 0 16 16" version="1.1" xmlns="http://www.w3.org/2000/svg" xmlns:xlink="http://www.w3.org/1999/xlink">
    <g id="4-Free/help-center" stroke="none" stroke-width="1" fill="none" fill-rule="evenodd">
        <g id="icon-help-center" transform="translate(1.500000, 1.500000)" fill="#030A1A">
            <path d="M6.5,0 C10.0898509,0 13,2.91014913 13,6.5 C13,10.0898509 10.0898509,13 6.5,13 C2.91014913,13 0,10.0898509 0,6.5 C0,2.91014913 2.91014913,0 6.5,0 Z M6.5,1 C3.46243388,1 1,3.46243388 1,6.5 C1,9.53756612 3.46243388,12 6.5,12 C9.53756612,12 12,9.53756612 12,6.5 C12,3.46243388 9.53756612,1 6.5,1 Z M8.97434165,5.34188612 C9.05196288,5.57474981 8.94872179,5.82435491 8.74082997,5.9382782 L8.65811388,5.97434165 L7,6.527 L7,7.348 L8.24935848,9.2226499 C8.40253471,9.45241425 8.34044778,9.76284892 8.11068343,9.91602515 C7.90644846,10.0521818 7.63847397,10.018254 7.47386494,9.84766266 L7.41730819,9.7773501 L6.5,8.401 L5.58269181,9.7773501 C5.44653517,9.98158507 5.18612493,10.0533342 4.9685661,9.95917646 L4.88931657,9.91602515 C4.6850816,9.7798685 4.61333248,9.51945827 4.70749021,9.30189943 L4.75064152,9.2226499 L6,7.347 L6,6.527 L4.34188612,5.97434165 C4.07991446,5.88701776 3.93833446,5.60385778 4.02565835,5.34188612 C4.10327958,5.10902242 4.33563551,4.971283 4.57030295,5.00487946 L4.65811388,5.02565835 L6.5,5.639 L8.34188612,5.02565835 C8.60385778,4.93833446 8.88701776,5.07991446 8.97434165,5.34188612 Z M6.5,2.66666667 C6.96023729,2.66666667 7.33333333,3.03976271 7.33333333,3.5 C7.33333333,3.96023729 6.96023729,4.33333333 6.5,4.33333333 C6.03976271,4.33333333 5.66666667,3.96023729 5.66666667,3.5 C5.66666667,3.03976271 6.03976271,2.66666667 6.5,2.66666667 Z" id="蒙版"></path>
        </g>
    </g>
</svg>