<?xml version="1.0" encoding="UTF-8"?>
<svg width="17px" height="16px" viewBox="0 0 17 16" version="1.1" xmlns="http://www.w3.org/2000/svg" xmlns:xlink="http://www.w3.org/1999/xlink">
    <title>ic_left@2x</title>
    <g id="广告位" stroke="none" stroke-width="1" fill="none" fill-rule="evenodd">
        <g id="工作台使用-侧边列表-样例图点击" transform="translate(-30, -250)">
            <g id="ic_left" transform="translate(28, 248)">
                <g transform="translate(2.2, 2)" id="LeftOutlined">
                    <rect id="mask" x="0" y="0" width="16" height="16"></rect>
                    <path d="M9.14644661,3.64644661 C9.34170876,3.45118446 9.65829124,3.45118446 9.85355339,3.64644661 C10.0385386,3.8314318 10.0482746,4.12530284 9.88276158,4.3217497 L9.85355339,4.35355339 L6.20725,8 L9.85355339,11.6464466 C10.0385386,11.8314318 10.0482746,12.1253028 9.88276158,12.3217497 L9.85355339,12.3535534 C9.6685682,12.5385386 9.37469716,12.5482746 9.1782503,12.3827616 L9.14644661,12.3535534 L5.14644661,8.35355339 C4.96146142,8.1685682 4.95172536,7.87469716 5.11723842,7.6782503 L5.14644661,7.64644661 L9.14644661,3.64644661 Z" fill="#757A85"></path>
                </g>
            </g>
        </g>
    </g>
</svg>