<?xml version="1.0" encoding="UTF-8"?>
<svg width="40px" height="40px" viewBox="0 0 40 40" version="1.1" xmlns="http://www.w3.org/2000/svg" xmlns:xlink="http://www.w3.org/1999/xlink">
    <title>icon-txt</title>
    <g id="控件" stroke="none" stroke-width="1" fill="none" fill-rule="evenodd">
        <g id="FileUpload-文件上传/Image/NoDescription/4-Success" transform="translate(-32.000000, -18.000000)">
            <g id="编组" transform="translate(32.000000, 18.000000)">
                <rect id="矩形" x="0" y="0" width="40" height="40" rx="0.888888889"></rect>
                <g id="shangchuanwenjian" transform="translate(9.333333, 6.666667)">
                    <path d="M1.77777778,0 C0.888888889,0 0,0.888888889 0,1.77777778 L0,24.8888889 C0,25.7777778 0.888888889,26.6666667 1.77777778,26.6666667 L20,26.6666667 C20.8888889,26.6666667 21.7777778,25.7777778 21.7777778,24.8888889 L21.7777778,7.66666667 L15.6742897,0 L1.77777778,0 Z" id="路径" fill="#4877FF" fill-rule="nonzero"></path>
                    <rect id="矩形" fill="#FFFFFF" x="2.22222222" y="8.44444444" width="11.5555556" height="1" rx="0.5"></rect>
                    <rect id="矩形备份-9" fill="#FFFFFF" x="2.22222222" y="11.5555556" width="8.88888889" height="1" rx="0.5"></rect>
                    <rect id="矩形备份-12" fill="#FFFFFF" x="2.22222222" y="14.6666667" width="11.5555556" height="1" rx="0.5"></rect>
                    <rect id="矩形备份-11" fill="#FFFFFF" x="2.22222222" y="17.7777778" width="11.5555556" height="1" rx="0.5"></rect>
                    <path d="M21.7777778,7.55555556 L16.6145778,7.55555556 C16.3495111,7.55555556 16.0856889,7.39185185 15.8206222,7.22814815 C15.5555556,7.06192593 15.5555556,6.56829631 15.5555556,6.2408889 L15.5555556,0 L21.7777778,7.55555556 Z" id="路径" fill="#B5CDF5" fill-rule="nonzero"></path>
                    <polygon id="路径-2" fill="#223EF7" points="16.4444444 7.55555556 21.7777778 12.4444444 21.7777778 7.55555556"></polygon>
                </g>
            </g>
        </g>
    </g>
</svg>