<?xml version="1.0" encoding="UTF-8"?>
<svg width="16px" height="16px" viewBox="0 0 16 16" version="1.1" xmlns="http://www.w3.org/2000/svg" xmlns:xlink="http://www.w3.org/1999/xlink">
    
    <g id="icon_butt_search" stroke="none" stroke-width="1" fill="none" fill-rule="evenodd">
        <g id="butt_search">
            <rect id="矩形" x="0" y="0" width="16" height="16"></rect>
            <path d="M7.22546134,3.04187016 C9.6315486,3.04187016 11.4081042,4.82321241 11.4081042,7.12484841 C11.4081042,9.4264844 9.6315486,11.2391357 7.22546134,11.2391357 C4.81937407,11.2391357 3.0891516,9.51098678 3.0891516,7.20935078 C3.0891516,4.90771479 4.81937407,3.04187016 7.22546134,3.04187016 Z M11.0094747,10.6953374 C11.9653356,9.73149459 12.4979014,8.45340303 12.4972558,7.12484841 C12.4972558,4.24772397 10.2331535,2 7.22546134,2 C4.2177692,2 2,4.33222635 2,7.20935078 C2,10.0864752 4.2177692,12.2810059 7.22546134,12.2810059 C8.34828112,12.2817537 9.26958269,12.0016069 10.1855315,11.3803671 L12.6758766,13.7631241 C12.8888058,13.9662888 13.2335223,13.9662888 13.4464514,13.7631241 C13.658836,13.5594385 13.658836,13.2296866 13.4464514,13.026001 L11.0094747,10.6953374 Z" id="形状" fill="#3A415C" fill-rule="nonzero"></path>
        </g>
    </g>
</svg>