<?xml version="1.0" encoding="UTF-8"?>
<svg width="16px" height="16px" viewBox="0 0 16 16" version="1.1" xmlns="http://www.w3.org/2000/svg" xmlns:xlink="http://www.w3.org/1999/xlink">
    <title>4-Free/clock</title>
    <defs>
        <polygon id="path-1" points="0 0 16 0 16 16 0 16"></polygon>
        <path d="M8,1.5 C11.5898509,1.5 14.5,4.41014913 14.5,8 C14.5,11.5898509 11.5898509,14.5 8,14.5 C4.41014913,14.5 1.5,11.5898509 1.5,8 C1.5,4.41014913 4.41014913,1.5 8,1.5 Z M8,2.5 C4.96243388,2.5 2.5,4.96243388 2.5,8 C2.5,11.0375661 4.96243388,13.5 8,13.5 C11.0375661,13.5 13.5,11.0375661 13.5,8 C13.5,4.96243388 11.0375661,2.5 8,2.5 Z M8,4.16666667 C8.24545989,4.16666667 8.44960837,4.34354183 8.49194433,4.57679103 L8.5,4.66666667 L8.5,7.793 L10.3535534,9.64644661 C10.5271197,9.82001296 10.5464049,10.0894374 10.4114088,10.2843055 L10.3535534,10.3535534 C10.179987,10.5271197 9.91056264,10.5464049 9.7156945,10.4114088 L9.64644661,10.3535534 L7.64644661,8.35355339 C7.57143206,8.27853884 7.52271496,8.18214268 7.5062287,8.07868937 L7.5,8 L7.5,4.66666667 C7.5,4.39052429 7.72385763,4.16666667 8,4.16666667 Z" id="path-3"></path>
    </defs>
    <g id="4-Free/clock" stroke="none" stroke-width="1" fill="none" fill-rule="evenodd">
        <g id="icon-clock">
            <mask id="mask-2" fill="white">
                <use xlink:href="#path-1"></use>
            </mask>
            <g id="蒙版"></g>
            <mask id="mask-4" fill="white">
                <use xlink:href="#path-3"></use>
            </mask>
            <use id="蒙版" fill="#2C3E50" fill-rule="nonzero" xlink:href="#path-3"></use>
            <g id="编组" mask="url(#mask-4)" fill="#030A1A">
                <g id="Color">
                    <polygon points="0 0 16 0 16 16 0 16"></polygon>
                </g>
            </g>
        </g>
    </g>
</svg>