<?xml version="1.0" encoding="UTF-8"?>
<svg width="60px" height="30px" viewBox="0 0 60 30" version="1.1" xmlns="http://www.w3.org/2000/svg" xmlns:xlink="http://www.w3.org/1999/xlink">
    <title>logo-console-dashboard</title>
    <defs>
        <rect id="path-1" x="0" y="0" width="60" height="30"></rect>
    </defs>
    <g id="图片资源更新-✅30%" stroke="none" stroke-width="1" fill="none" fill-rule="evenodd">
        <g id="logo更换" transform="translate(-243.000000, -1069.000000)">
            <g id="编组-4" transform="translate(50.000000, 866.000000)">
                <g id="编组" transform="translate(30.000000, 194.000000)">
                    <g id="nav_logo" transform="translate(20.000000, 9.000000)">
                        <g id="logo-console-dashboard" transform="translate(143.000000, 0.000000)">
                            <mask id="mask-2" fill="white">
                                <use xlink:href="#path-1"></use>
                            </mask>
                            <g id="蒙版"></g>
                            <path d="M18.4,23.66 L18.4,21.3 L10.5,21.3 L10.5,10.04 L17.36,10.04 L17.36,7.66 L1.04,7.66 L1.04,10.04 L7.88,10.04 L7.88,21.3 L0,21.3 L0,23.66 L18.4,23.66 Z M32.38,24.92 L32.38,20.88 L38.18,20.88 L38.18,18.74 L32.38,18.74 L32.38,16.02 L37.62,16.02 L37.62,13.88 L32.38,13.88 L32.38,11.16 L38.7,11.16 L38.7,8.96 L30.24,8.96 C30.5066667,8.30666667 30.8066667,7.5 31.14,6.54 L31.14,6.54 L28.74,6.08 C27.9533333,8.96 26.7133333,11.5333333 25.02,13.8 C25.66,14.4933333 26.1866667,15.0866667 26.6,15.58 C27.6133333,14.2466667 28.5066667,12.7733333 29.28,11.16 L29.28,11.16 L30.04,11.16 L30.04,24.92 L32.38,24.92 Z M24.5,24.9 L24.5,10.6 C25.0733333,9.22666667 25.56,7.92 25.96,6.68 L25.96,6.68 L23.62,6.08 C22.6466667,9.52 21.3266667,12.4933333 19.66,15 C19.9533333,16.0933333 20.1866667,17.0333333 20.36,17.82 C20.9733333,16.9933333 21.5933333,16.0666667 22.22,15.04 L22.22,15.04 L22.22,24.9 L24.5,24.9 Z M56.76,15.28 L58.72,13.88 C56.6666667,11.8 54.7866667,9.95333333 53.08,8.34 L53.08,8.34 L51.32,9.58 L53.48,11.8 C50.28,11.88 47.22,11.9666667 44.3,12.06 C46.0866667,10.6333333 47.9933333,8.98 50.02,7.1 L50.02,7.1 L47.42,6 C45.8466667,7.8 44.16,9.44 42.36,10.92 C41.64,11.48 40.8933333,11.94 40.12,12.3 L40.12,12.3 L41.24,14.54 C42.08,14.3666667 43.04,14.2533333 44.12,14.2 C47.04,14.08 50.8133333,13.96 55.44,13.84 C55.88,14.32 56.32,14.8 56.76,15.28 L56.76,15.28 Z M44.28,25 L44.28,23.78 L54.1,23.78 L54.1,25 L56.48,25 L56.48,16 L41.9,16 L41.9,25 L44.28,25 Z M54.1,21.68 L44.28,21.68 L44.28,18.1 L54.1,18.1 L54.1,21.68 Z" id="工作台" fill="#030A1A" fill-rule="nonzero" mask="url(#mask-2)"></path>
                        </g>
                    </g>
                </g>
            </g>
        </g>
    </g>
</svg>