<?xml version="1.0" encoding="UTF-8"?>
<svg width="68px" height="16px" viewBox="0 0 68 16" version="1.1" xmlns="http://www.w3.org/2000/svg" xmlns:xlink="http://www.w3.org/1999/xlink">
    
    <g id="控件" stroke="none" stroke-width="1" fill="none" fill-rule="evenodd">
        <g id="Navlogo/Logo+Text/light" transform="translate(-31.000000, -7.000000)">
            <g id="logo-text" transform="translate(31.000000, 7.000000)">
                <path d="M18.0143733,2.74230537 C21.0864172,2.74230537 23.5685584,5.21450605 23.6823454,8.17755463 L23.6864212,8.39000898 L23.6709755,8.38883859 C23.696485,8.57410934 23.7092397,8.77743357 23.7092397,8.99881129 L23.7092397,10.629652 L15.0129371,10.6301068 C15.1874897,12.1076159 16.4647035,13.254476 18.0143733,13.254476 C18.9803953,13.254476 19.8405426,12.8088134 20.3937074,12.1152063 L23.6705069,12.1143054 L23.6340013,12.2240755 C22.8359333,14.4236681 20.6782301,16 18.1416568,16 C15.0256453,16 12.4813673,13.6212383 12.3269316,10.6304861 L12.3195069,10.629652 L12.3195069,8.00160933 L12.3332716,8.00161183 C12.5380985,5.11728495 15.0033404,2.74230537 18.0143733,2.74230537 Z M28.3304121,2.74545481 L30.7521361,6.86749828 L33.1734121,2.74545481 L36.3934121,2.74545481 L32.5301361,9.32349828 L36.4464121,15.9914548 L36.4471449,16 L33.2304121,15.9994548 L30.7521361,11.7794983 L28.2734121,15.9994548 L25.0574121,16 L25.0574121,15.9924548 L28.9731361,9.32349828 L25.1104121,2.74545481 L28.3304121,2.74545481 Z M44.0480482,0.00321866828 L44.0476521,2.74521867 L47.3022576,2.74552404 L47.3022576,5.71635486 L44.0476521,5.71621867 L44.0480482,11.1605926 C44.0480482,12.3187901 45.0040682,13.2576946 46.1833787,13.2576946 L47.3022576,13.2576946 L47.3022576,16 L45.8307758,16 C43.1773274,16 41.0262824,13.8874648 41.0262824,11.2815205 L41.0256521,5.71621867 L37.4466521,5.71635486 L39.0531605,2.74552404 L41.0256521,2.74521867 L41.0262824,0.00321866828 L44.0480482,0.00321866828 Z M8.13593705,3.15638181e-13 L8.135,0.003 L13.7374124,0.00321866828 L12.0241433,2.97404949 L8.135,2.974 L8.13593705,15.9967813 L5.11375758,15.9967813 L5.113,2.974 L0,2.97404949 L0,0.00321866828 L5.113,0.003 L5.11375758,3.15638181e-13 L8.13593705,3.15638181e-13 Z M18.0143733,5.48461074 C16.5024401,5.48461074 15.2498551,6.57629564 15.0276385,8.00164174 L21.0011081,8.00164174 C20.7788914,6.57629564 19.5263065,5.48461074 18.0143733,5.48461074 Z" id="形状结合" fill="#030A1A"></path>
                <path d="M53.4355227,0 L53.4355227,16 L50.4137569,16 L50.4137569,0 L53.4355227,0 Z M56.6664877,16 L56.6664877,2.72 L59.5952761,2.72 L59.5945179,3.84085353 C60.5731067,3.18060562 61.745172,2.77525349 63.0127589,2.72349454 L63.1186859,2.72 L63.2755323,2.72514112 C65.9098951,2.81149042 68,4.9338291 68,7.52246992 L68,16 L65.0944559,16 L65.0944559,8.39866992 C65.0944559,6.91726822 63.8716509,5.71635486 62.3632445,5.71635486 C60.8734604,5.71635486 59.6622693,6.88779908 59.6325904,8.34393318 L59.6320331,16 L56.6664877,16 Z" id="形状结合" fill="#1A66FF"></path>
            </g>
        </g>
    </g>
</svg>