<?xml version="1.0" encoding="UTF-8"?>
<svg width="16px" height="16px" viewBox="0 0 16 16" version="1.1" xmlns="http://www.w3.org/2000/svg" xmlns:xlink="http://www.w3.org/1999/xlink">
    <g id="4-Free/warning" stroke="none" stroke-width="1" fill="none" fill-rule="evenodd">
        <g id="icon-warning" transform="translate(1.500000, 1.500000)" fill="#030A1A">
            <path d="M6.5,0 C10.0898509,0 13,2.91014913 13,6.5 C13,10.0898509 10.0898509,13 6.5,13 C2.91014913,13 0,10.0898509 0,6.5 C0,2.91014913 2.91014913,0 6.5,0 Z M6.50666667,8.66666667 L6.41012437,8.67472234 C6.17687516,8.7170583 6,8.92120678 6,9.16666667 C6,9.44280904 6.22385763,9.66666667 6.50666667,9.66666667 L6.50666667,9.66666667 L6.5965423,9.658611 C6.82979151,9.61627504 7.00666667,9.41212656 7.00666667,9.16666667 C7.00666667,8.89052429 6.78280904,8.66666667 6.50666667,8.66666667 L6.50666667,8.66666667 Z M6.5,3.33333333 C6.22385763,3.33333333 6,3.55719096 6,3.83333333 L6,3.83333333 L6,7.33333333 L6.00805567,7.42320897 C6.05039163,7.65645817 6.25454011,7.83333333 6.5,7.83333333 C6.77614237,7.83333333 7,7.60947571 7,7.33333333 L7,7.33333333 L7,3.83333333 L6.99194433,3.7434577 C6.94960837,3.51020849 6.74545989,3.33333333 6.5,3.33333333 Z" id="蒙版"></path>
        </g>
    </g>
</svg>