<?xml version="1.0" encoding="UTF-8"?>
<svg width="20px" height="20px" viewBox="0 0 20 20" version="1.1" xmlns="http://www.w3.org/2000/svg" xmlns:xlink="http://www.w3.org/1999/xlink">
    
    <defs>
        <polygon id="path-1" points="0 0 20 0 20 20 0 20"></polygon>
        <path d="M11.6666667,14.375 C12.0118446,14.375 12.2916667,14.654822 12.2916667,15 C12.2916667,15.3068249 12.0705727,15.5620105 11.7790112,15.6149304 L11.6666667,15.625 L3.33333333,15.625 C2.98815536,15.625 2.70833333,15.345178 2.70833333,15 C2.70833333,14.6931751 2.92942728,14.4379895 3.22098879,14.3850696 L3.33333333,14.375 L11.6666667,14.375 Z M15.260085,6.93149946 L15.3553819,6.98573895 L15.4419417,7.05805826 L17.9419417,9.55805826 C18.0541888,9.67030529 18.1117717,9.80526752 18.123834,9.94087042 L18.1227943,10.0540565 L18.1026274,10.1661341 L18.0648758,10.2678679 L18.0138467,10.3565714 L17.9419417,10.4419417 L15.4419417,12.9419417 C15.1978641,13.1860194 14.8021359,13.1860194 14.5580583,12.9419417 C14.3411003,12.7249838 14.3169939,12.3882033 14.4857389,12.1446181 L14.5580583,12.0580583 L15.99,10.625 L3.33333333,10.625 C2.98815536,10.625 2.70833333,10.345178 2.70833333,10 C2.70833333,9.69317514 2.92942728,9.43798954 3.22098879,9.38506959 L3.33333333,9.375 L15.99125,9.375 L14.5580583,7.94194174 C14.3411003,7.7249838 14.3169939,7.3882033 14.4857389,7.14461812 L14.5580583,7.05805826 C14.7478965,6.86822006 15.0294738,6.8260338 15.260085,6.93149946 Z M11.6666667,4.375 C12.0118446,4.375 12.2916667,4.65482203 12.2916667,5 C12.2916667,5.30682486 12.0705727,5.56201046 11.7790112,5.61493041 L11.6666667,5.625 L3.33333333,5.625 C2.98815536,5.625 2.70833333,5.34517797 2.70833333,5 C2.70833333,4.69317514 2.92942728,4.43798954 3.22098879,4.38506959 L3.33333333,4.375 L11.6666667,4.375 Z" id="path-3"></path>
    </defs>
    <g id="导航1⃣️-" stroke="none" stroke-width="1" fill="none" fill-rule="evenodd">
        <g id="左侧导航-01" transform="translate(-237.000000, -5240.000000)">
            <g id="Left-Sidebar/Dark/01-Normal备份-7" transform="translate(214.000000, 5172.000000)">
                <g id="Sidebar" transform="translate(0.000000, 54.000000)">
                    <g id="icon-menu-unfold" transform="translate(23.000000, 14.000000)">
                        <mask id="mask-2" fill="white">
                            <use xlink:href="#path-1"></use>
                        </mask>
                        <g id="蒙版"></g>
                        <mask id="mask-4" fill="white">
                            <use xlink:href="#path-3"></use>
                        </mask>
                        <use id="蒙版" fill="#000000" fill-rule="nonzero" xlink:href="#path-3"></use>
                        <g id="编组" mask="url(#mask-4)" fill="#666E80">
                            <g id="Color">
                                <polygon points="0 0 20 0 20 20 0 20"></polygon>
                            </g>
                        </g>
                    </g>
                </g>
            </g>
        </g>
    </g>
</svg>